<svg xmlns="http://www.w3.org/2000/svg" xmlns:xlink="http://www.w3.org/1999/xlink" width="45" height="45" viewBox="0 0 45 45">
  <defs>
    <clipPath id="clip-Double-up_">
      <rect width="45" height="45"/>
    </clipPath>
  </defs>
  <g id="Double-up_" data-name="Double-up " clip-path="url(#clip-Double-up_)">
    <g id="up_icon-icons.com_67960" transform="translate(10.024 10.024)">
      <g id="Grupo_7" data-name="Grupo 7" transform="translate(6.956 8.679)">
        <path id="Caminho_5" data-name="Caminho 5" d="M21.748,19.981a.579.579,0,0,1-.447-.191l-4.658-4.658L11.985,19.79a.632.632,0,1,1-.893-.893L16.2,13.791a.617.617,0,0,1,.893,0L22.2,18.9a.617.617,0,0,1,0,.893A.579.579,0,0,1,21.748,19.981Z" transform="translate(-10.9 -13.6)" fill="#fff"/>
      </g>
      <g id="Grupo_8" data-name="Grupo 8">
        <path id="Caminho_6" data-name="Caminho 6" d="M12.763,25.526A12.763,12.763,0,0,1,12.763,0a12.967,12.967,0,0,1,7.849,2.68.686.686,0,0,1,.128.893.686.686,0,0,1-.893.128,11.5,11.5,0,1,0,4.4,9.062,11.922,11.922,0,0,0-1.6-5.871.646.646,0,1,1,1.085-.7,13.377,13.377,0,0,1,1.787,6.573A12.8,12.8,0,0,1,12.763,25.526Z" fill="#fff"/>
      </g>
    </g>
  </g>
</svg>
