<svg xmlns="http://www.w3.org/2000/svg" xmlns:xlink="http://www.w3.org/1999/xlink" width="81" height="75" viewBox="0 0 81 75">
  <defs>
    <clipPath id="clip-Facebook">
      <rect width="81" height="75"/>
    </clipPath>
  </defs>
  <g id="Facebook" clip-path="url(#clip-Facebook)">
    <g id="Grupo_3" data-name="Grupo 3">
      <path id="Caminho_267" data-name="Caminho 267" d="M6101.063,8445h13.755a28.128,28.128,0,0,1,28.063,28.063v13.754a28.128,28.128,0,0,1-28.063,28.063h-13.755A28.127,28.127,0,0,1,6073,8486.816v-13.754A28.127,28.127,0,0,1,6101.063,8445Z" transform="translate(-6067.209 -8442.887)" fill="#0d81e0" fill-rule="evenodd"/>
      <path id="Caminho_268" data-name="Caminho 268" d="M6103.517,8445h5.979a30.59,30.59,0,0,1,30.517,30.516v5.945a30.62,30.62,0,0,1-30.517,30.551h-5.979A30.62,30.62,0,0,1,6073,8481.461v-5.945A30.59,30.59,0,0,1,6103.517,8445Z" transform="translate(-6067.209 -8442.887)" fill="#0e8cf1" fill-rule="evenodd"/>
      <path id="Caminho_269" data-name="Caminho 269" d="M6832.735,8988.014v5.148H6828v5.357h4.735V9013h5.979v-14.48h4.32s.38-2.662.587-5.392h-4.873v-4.872a1.481,1.481,0,0,1,1.382-1.245h3.8V8982H6839.3C6832.6,8982,6832.735,8987.219,6832.735,8988.014Z" transform="translate(-6796.117 -8961.328)" fill="#fefefe" fill-rule="evenodd"/>
    </g>
  </g>
</svg>
