<svg xmlns="http://www.w3.org/2000/svg" xmlns:xlink="http://www.w3.org/1999/xlink" width="81" height="75" viewBox="0 0 81 75">
  <defs>
    <clipPath id="clip-Linkedin">
      <rect width="81" height="75"/>
    </clipPath>
  </defs>
  <g id="Linkedin" clip-path="url(#clip-Linkedin)">
    <path id="Caminho_477" data-name="Caminho 477" d="M3062.063,2827h13.755a28.157,28.157,0,0,1,28.063,28.1v13.755a28.127,28.127,0,0,1-28.063,28.063h-13.755A28.127,28.127,0,0,1,3034,2868.852V2855.1A28.157,28.157,0,0,1,3062.063,2827Z" transform="translate(-3028.238 -2824.045)" fill="#08779c" fill-rule="evenodd"/>
    <path id="Caminho_478" data-name="Caminho 478" d="M3064.516,2827h5.945a30.65,30.65,0,0,1,30.551,30.551v5.944a30.65,30.65,0,0,1-30.551,30.551h-5.945A30.62,30.62,0,0,1,3034,2863.5v-5.944A30.62,30.62,0,0,1,3064.516,2827Z" transform="translate(-3028.238 -2824.045)" fill="#0084b1" fill-rule="evenodd"/>
    <path id="Caminho_480" data-name="Caminho 480" d="M3678.076,3390a3.083,3.083,0,0,1,3.076,3.076,3.076,3.076,0,1,1-3.076-3.076Z" transform="translate(-3647.085 -3367.588)" fill="#fefefe" fill-rule="evenodd"/>
    <path id="Caminho_481" data-name="Caminho 481" d="M3691.458,3652.038h-3.594a.849.849,0,0,1-.864-.83v-15.345a.855.855,0,0,1,.864-.864h3.594a.848.848,0,0,1,.829.864v15.345A.841.841,0,0,1,3691.458,3652.038Z" transform="translate(-3658.67 -3604.121)" fill="#fefefe" fill-rule="evenodd"/>
    <path id="Caminho_479" data-name="Caminho 479" d="M3953.52,3628.806a5.8,5.8,0,0,0-5.841-5.806h-.9a5.143,5.143,0,0,0-4.251,2.212,1.936,1.936,0,0,0-.276.449h-.069v-1.9a.346.346,0,0,0-.346-.346h-4.493a.372.372,0,0,0-.346.346v16.347a.372.372,0,0,0,.346.345h4.6a.346.346,0,0,0,.345-.345v-9.435a2.981,2.981,0,0,1,5.081-2.143,3.069,3.069,0,0,1,.864,2.108v9.47a.347.347,0,0,0,.346.345h4.6a.346.346,0,0,0,.346-.345v-11.3Z" transform="translate(-3900.03 -3592.535)" fill="#fefefe" fill-rule="evenodd"/>
  </g>
</svg>
